<?xml version="1.0" encoding="UTF-8"?>
<svg id="_Слой_1" data-name="Слой 1" xmlns="http://www.w3.org/2000/svg" viewBox="0 0 66.17 33.94">
    <defs>
        <style>
            .cls-1 {
            fill: #fff;
            stroke-width: 0px;
            }
        </style>
    </defs>
    <g>
        <path class="cls-1" d="M.38,16.07v-.48c.3,0,.51-.1.63-.3.12-.2.2-.47.24-.8.04-.33.07-.71.1-1.12.07-.91.15-1.8.23-2.65s.15-1.63.22-2.34c.07-.71.12-1.31.17-1.81.04-.5.06-.85.06-1.05,0-.21-.02-.41-.06-.58-.04-.18-.16-.26-.37-.26-.17,0-.36.12-.58.35-.22.23-.41.63-.56,1.19l-.46-.1c.03-.19.1-.41.2-.66.1-.25.24-.5.41-.74.17-.24.38-.45.62-.6.24-.16.53-.24.84-.24.48,0,.8.17.96.5.16.33.25.72.25,1.17,0,.32-.02.64-.07.96-.05.32-.1.61-.15.85h.05c.3-.98.6-1.71.92-2.21.31-.5.63-.84.96-1.01.33-.17.65-.26.96-.26.49,0,.89.14,1.21.42.32.28.55.66.71,1.12.15.47.23.98.23,1.54,0,1.03-.18,1.94-.53,2.72-.36.79-.88,1.4-1.58,1.84-.69.44-1.56.66-2.59.66-.14,0-.27,0-.39-.02-.12-.01-.24-.02-.36-.03-.05.81-.09,1.43-.12,1.87-.03.44-.05.76-.06.97-.02.21-.04.37-.07.49.17-.01.34-.02.5-.02.16,0,.33-.01.5-.02v.65H.38ZM3.66,11.65c.45,0,.84-.09,1.18-.27.34-.18.63-.42.87-.72.24-.3.43-.64.58-1.03.15-.38.26-.78.33-1.19.07-.41.1-.8.1-1.19,0-.49-.03-.93-.1-1.33-.06-.4-.17-.71-.33-.95-.16-.23-.39-.35-.68-.35s-.57.15-.86.46c-.29.31-.55.72-.8,1.23-.24.51-.46,1.08-.65,1.71s-.33,1.26-.43,1.91c-.04.23-.08.48-.1.72-.03.25-.05.51-.07.79.17.05.33.1.49.14.15.04.32.06.49.06Z"/>
        <path class="cls-1" d="M13.29,3.88c.38,0,.74.06,1.08.17.34.12.62.31.83.57.21.27.32.63.32,1.08s-.15.81-.45,1.13-.68.58-1.16.79c-.48.21-.99.37-1.53.5s-1.06.22-1.56.27c0,.66.07,1.21.2,1.65.13.45.33.78.6,1,.27.22.6.33,1.02.33.31,0,.62-.07.93-.21.31-.14.61-.35.9-.63.29-.28.55-.64.78-1.09l.52.3c-.3.55-.62,1.01-.95,1.37-.34.36-.71.63-1.11.8-.4.17-.85.25-1.34.25-1.01,0-1.75-.32-2.23-.95-.48-.63-.72-1.46-.72-2.49,0-.62.08-1.21.24-1.8.16-.58.4-1.11.72-1.57.32-.46.72-.83,1.21-1.1s1.06-.41,1.7-.41ZM13.06,4.42c-.49,0-.89.16-1.2.49-.31.33-.55.75-.72,1.27-.16.52-.27,1.07-.31,1.64.56-.07,1.1-.21,1.61-.4s.93-.44,1.26-.74c.33-.3.49-.66.49-1.06,0-.34-.09-.63-.28-.86-.19-.23-.47-.35-.85-.35Z"/>
        <path class="cls-1" d="M18,12.01c-.01-.07-.02-.14-.02-.2v-.21c0-.18,0-.4.02-.64.01-.25.03-.58.07-.99s.09-.95.17-1.62c.07-.69.13-1.21.18-1.56.04-.35.07-.61.1-.77.02-.16.03-.3.03-.41.01-.21,0-.42-.04-.62-.04-.2-.17-.3-.39-.3-.17,0-.37.12-.59.35s-.41.63-.57,1.19l-.45-.1c.03-.19.1-.41.2-.66.1-.25.24-.5.41-.74.17-.24.38-.45.62-.6.24-.16.52-.24.84-.24.48,0,.8.16.95.49.16.33.23.77.21,1.32-.01.23-.04.49-.09.77-.05.28-.1.58-.15.88h.05c.31-.92.63-1.63.96-2.13.33-.5.67-.85,1.02-1.04.34-.2.69-.29,1.03-.29.32,0,.58.08.8.25.21.16.32.39.32.68,0,.19-.07.37-.2.52s-.31.24-.53.24c-.19,0-.36-.06-.49-.17s-.22-.28-.24-.49c-.3-.06-.59.03-.87.29-.28.25-.55.62-.8,1.09-.25.47-.47,1-.65,1.58s-.33,1.18-.44,1.78c-.11.6-.16,1.17-.16,1.69,0,.16,0,.28,0,.36,0,.08.01.19.02.33h-1.32Z"/>
        <path class="cls-1" d="M26.65,12.19c-.42,0-.83-.07-1.23-.2-.39-.13-.71-.33-.96-.58-.24-.25-.37-.56-.37-.92,0-.23.07-.42.2-.56.13-.14.29-.21.49-.21.21,0,.37.07.49.21.11.14.17.29.17.46,0,.07-.01.15-.03.24-.02.08-.06.17-.11.25.08.23.25.41.51.54.25.13.52.19.81.19.57,0,1-.13,1.29-.4.29-.27.43-.64.43-1.11,0-.29-.1-.54-.3-.76-.2-.22-.46-.43-.76-.63s-.63-.39-.95-.58c-.31-.19-.6-.39-.88-.59-.28-.2-.51-.42-.68-.67-.18-.24-.26-.52-.26-.83,0-.39.12-.75.35-1.07.23-.32.56-.58.97-.78.41-.2.89-.29,1.43-.29.4,0,.78.06,1.14.19.36.13.65.31.88.54.23.23.34.51.34.83,0,.22-.06.4-.19.53-.13.13-.29.2-.48.2s-.34-.06-.46-.19c-.12-.13-.17-.28-.17-.45,0-.08.01-.17.03-.25.02-.08.06-.16.11-.25-.05-.18-.18-.33-.39-.45-.21-.12-.49-.18-.85-.18-.23,0-.46.05-.68.16s-.41.25-.56.44c-.15.19-.22.41-.22.66,0,.2.06.39.18.56.12.17.28.33.49.48.2.15.42.3.65.45.38.22.77.46,1.18.71.4.25.74.53,1.01.85.27.32.41.71.41,1.16s-.12.84-.37,1.19c-.25.35-.6.63-1.05.83-.45.2-.97.3-1.57.3Z"/>
        <path class="cls-1" d="M34.99,3.88c.57,0,1.09.14,1.54.41s.82.67,1.08,1.19c.27.52.4,1.15.4,1.89,0,.85-.15,1.64-.46,2.38-.31.74-.75,1.33-1.33,1.77-.58.45-1.28.67-2.11.67-.7,0-1.28-.16-1.73-.48s-.79-.75-1-1.29-.33-1.14-.33-1.8c0-.86.16-1.65.47-2.37.31-.72.76-1.3,1.35-1.73.59-.43,1.29-.64,2.11-.64ZM34.75,4.47c-.47-.01-.87.15-1.21.47-.34.32-.6.76-.79,1.31-.19.55-.28,1.17-.29,1.85-.01.36.01.74.06,1.15.05.4.15.78.28,1.13.13.35.32.64.56.86s.54.34.9.35c.42.01.78-.1,1.08-.34.3-.24.54-.55.72-.93s.32-.79.41-1.23c.09-.43.14-.84.15-1.23.01-.37,0-.75-.06-1.15s-.14-.76-.28-1.1c-.14-.34-.33-.61-.57-.82-.24-.21-.56-.32-.95-.33Z"/>
        <path class="cls-1" d="M46.26,12.19c-.5,0-.84-.13-1.02-.4s-.27-.64-.27-1.13c0-.3.02-.65.07-1.05s.11-.83.17-1.29c.07-.46.13-.92.18-1.38s.07-.91.07-1.34c0-.13-.02-.27-.06-.41s-.11-.28-.21-.39c-.11-.11-.27-.17-.48-.17-.3,0-.59.14-.89.41-.3.28-.58.65-.84,1.11-.27.47-.5.98-.72,1.55-.21.57-.38,1.15-.5,1.75-.12.6-.18,1.17-.18,1.71,0,.16,0,.31,0,.44,0,.13.01.27.02.41h-1.34c-.01-.07-.02-.14-.02-.2v-.21c0-.18.01-.39.03-.63.02-.24.06-.56.1-.95.05-.4.11-.93.18-1.6.07-.63.13-1.11.17-1.46.04-.35.07-.62.09-.8.02-.19.03-.33.04-.43,0-.1,0-.21,0-.33,0-.19-.03-.36-.08-.5-.05-.14-.17-.21-.35-.21-.17,0-.37.12-.59.35s-.41.63-.57,1.19l-.45-.1c.03-.19.1-.41.2-.66.1-.25.24-.5.41-.74.17-.24.38-.45.62-.6.24-.16.52-.24.84-.24.36,0,.63.1.8.29.17.2.29.45.33.76.05.31.06.64.04.99-.02.3-.06.58-.1.86-.05.28-.09.52-.14.73h.05c.36-.97.72-1.71,1.07-2.24.35-.52.7-.89,1.04-1.09.34-.2.69-.3,1.03-.3.42,0,.76.1,1.02.29.25.19.44.44.55.76.11.31.17.66.17,1.03,0,.58-.04,1.18-.12,1.79-.08.61-.16,1.17-.24,1.69-.08.51-.12.93-.12,1.23,0,.19.02.36.07.51s.17.22.36.22c.18,0,.38-.11.6-.34.22-.23.41-.63.56-1.2l.45.11c-.03.18-.1.4-.2.65-.1.25-.24.5-.41.74-.17.24-.38.44-.62.6s-.52.24-.84.24Z"/>
        <path class="cls-1" d="M53.75,3.88c.32,0,.67.02,1.05.07s.74.11,1.08.2c-.08.64-.17,1.27-.25,1.9-.08.63-.15,1.23-.22,1.8-.07.57-.12,1.08-.17,1.53-.04.45-.06.8-.06,1.06,0,.21.02.42.05.64.03.21.16.32.4.32.18,0,.38-.12.6-.35.22-.23.41-.63.56-1.19l.45.1c-.03.19-.1.41-.2.66-.1.25-.24.5-.41.74-.17.24-.38.45-.62.6-.24.16-.53.24-.84.24-.42,0-.73-.13-.91-.4-.18-.27-.27-.61-.27-1.03,0-.31.03-.64.09-1,.06-.36.12-.74.2-1.13h-.05c-.25.79-.52,1.41-.79,1.89-.27.47-.54.83-.81,1.07-.27.24-.53.41-.79.49-.25.08-.49.12-.72.12-.57,0-1.05-.21-1.44-.64s-.58-1.14-.58-2.13c0-.74.1-1.45.29-2.12.19-.67.48-1.26.87-1.77.39-.51.87-.92,1.46-1.21.58-.29,1.26-.44,2.04-.44ZM53.26,4.46c-.48,0-.89.13-1.25.4s-.65.62-.88,1.07c-.23.45-.41.96-.52,1.51-.11.56-.17,1.13-.17,1.71,0,.68.07,1.24.22,1.68.15.44.42.66.81.66.29,0,.58-.14.87-.43.29-.29.56-.67.82-1.15.25-.48.48-1.02.68-1.62.2-.6.36-1.21.48-1.84s.18-1.23.18-1.8c-.16-.06-.34-.11-.56-.14-.21-.03-.44-.05-.68-.05Z"/>
        <path class="cls-1" d="M60.64,0c-.03.27-.08.56-.14.89-.06.33-.11.65-.16.97-.05.32-.09.6-.12.84-.06.45-.13.95-.19,1.52-.06.57-.13,1.16-.19,1.77-.06.61-.12,1.21-.17,1.79-.05.58-.09,1.12-.12,1.6-.03.48-.05.88-.05,1.19,0,.2.02.39.06.56.04.18.16.26.37.26.18,0,.38-.11.6-.34.22-.23.41-.63.56-1.2l.45.11c-.03.18-.1.4-.2.65-.1.25-.24.5-.41.74-.17.24-.37.44-.61.6s-.52.24-.84.24c-.44,0-.75-.11-.96-.33s-.31-.54-.32-.96c-.01-.27,0-.66.04-1.18.04-.52.08-1.11.14-1.77.06-.66.12-1.36.2-2.08.07-.73.15-1.43.24-2.12.08-.69.16-1.32.24-1.88.05-.29.09-.47.1-.56.02-.09.03-.19.04-.29-.19.01-.38.02-.56.03-.19.01-.37.02-.56.03l.08-.64c.47,0,.83-.02,1.09-.06.26-.04.46-.1.6-.16.14-.06.25-.13.33-.21h.45Z"/>
        <path class="cls-1" d="M2.74,31.28c-.42,0-.83-.07-1.23-.2-.39-.13-.71-.33-.96-.58-.24-.25-.37-.56-.37-.92,0-.23.07-.42.2-.56.13-.14.29-.21.49-.21.21,0,.37.07.49.21.11.14.17.29.17.46,0,.07-.01.15-.03.24-.02.08-.06.17-.11.25.08.23.25.41.51.54.25.13.52.19.81.19.57,0,1-.13,1.29-.4.29-.27.43-.64.43-1.11,0-.29-.1-.54-.3-.76-.2-.22-.46-.43-.76-.63s-.63-.39-.95-.58c-.31-.19-.6-.39-.88-.59-.28-.2-.51-.42-.68-.67-.18-.24-.26-.52-.26-.83,0-.39.12-.75.35-1.07.23-.32.56-.58.97-.78.41-.2.89-.29,1.43-.29.4,0,.78.06,1.14.19.36.13.65.31.88.54.23.23.34.51.34.83,0,.22-.06.4-.19.53-.13.13-.29.2-.48.2s-.34-.06-.46-.19c-.12-.13-.17-.28-.17-.45,0-.08.01-.17.03-.25.02-.08.06-.16.11-.25-.05-.18-.18-.33-.39-.45-.21-.12-.49-.18-.85-.18-.23,0-.46.05-.68.16s-.41.25-.56.44c-.15.19-.22.41-.22.66,0,.2.06.39.18.56.12.17.28.33.49.48.2.15.42.3.65.45.38.22.77.46,1.18.71.4.25.74.53,1.01.85.27.32.41.71.41,1.16s-.12.84-.37,1.19c-.25.35-.6.63-1.05.83-.45.2-.97.3-1.57.3Z"/>
        <path class="cls-1" d="M9.83,31.28c-.42,0-.76-.1-1.02-.29s-.44-.45-.55-.76c-.11-.32-.17-.66-.17-1.02,0-.59.04-1.19.13-1.8.08-.6.17-1.16.25-1.68.08-.51.13-.92.13-1.22,0-.2-.02-.38-.07-.53-.05-.15-.17-.22-.36-.22-.17,0-.36.12-.56.35-.21.23-.39.63-.55,1.19l-.45-.1c.03-.19.1-.41.19-.66.1-.25.23-.5.39-.74s.37-.45.6-.6c.24-.16.52-.24.84-.24.42,0,.75.13.96.4.22.27.33.65.33,1.15,0,.3-.03.66-.08,1.1-.05.44-.11.89-.18,1.36-.07.47-.13.93-.18,1.38-.05.45-.08.84-.08,1.18,0,.12.02.25.06.41.04.16.11.3.22.41.11.12.27.18.47.18.3,0,.59-.14.88-.41.29-.28.56-.65.81-1.11s.48-.98.68-1.55.36-1.15.47-1.75.17-1.17.17-1.71c0-.16,0-.3,0-.44,0-.13-.01-.27-.02-.41h1.34c.01.07.02.14.02.2v.21c0,.18-.01.4-.03.64-.02.25-.05.58-.1.99s-.11.95-.19,1.62c-.07.62-.13,1.1-.17,1.45s-.07.61-.09.79c-.02.17-.03.31-.04.41,0,.1,0,.2,0,.32,0,.19.03.36.09.49s.17.21.34.21c.18,0,.38-.11.6-.34.22-.23.41-.62.56-1.19l.45.1c-.03.19-.1.41-.2.66-.1.25-.24.5-.41.74-.17.24-.38.45-.62.6s-.52.24-.84.24c-.42,0-.73-.13-.93-.4s-.29-.61-.29-1.03c0-.31.03-.64.09-1,.06-.36.12-.74.2-1.13h-.05c-.36.97-.71,1.71-1.03,2.22-.33.51-.65.87-.97,1.06s-.65.29-1,.29Z"/>
        <path class="cls-1" d="M23.49,31.28c-.5,0-.84-.13-1.02-.4s-.27-.64-.27-1.13c0-.3.02-.65.07-1.05s.11-.83.17-1.29c.07-.46.13-.92.18-1.38s.07-.91.07-1.34c0-.13-.02-.27-.06-.41s-.11-.28-.21-.39c-.11-.11-.27-.17-.48-.17-.3,0-.59.14-.89.41-.3.28-.58.65-.84,1.11-.27.47-.5.98-.72,1.55-.21.57-.38,1.15-.5,1.75-.12.6-.18,1.17-.18,1.71,0,.16,0,.31,0,.44,0,.13.01.27.02.41h-1.34c-.01-.07-.02-.14-.02-.2v-.21c0-.18.01-.39.03-.63.02-.24.06-.56.1-.95.05-.4.11-.93.18-1.6.07-.63.13-1.11.17-1.46.04-.35.07-.62.09-.8.02-.19.03-.33.04-.43,0-.1,0-.21,0-.33,0-.19-.03-.36-.08-.5-.05-.14-.17-.21-.35-.21-.17,0-.37.12-.59.35s-.41.63-.57,1.19l-.45-.1c.03-.19.1-.41.2-.66.1-.25.24-.5.41-.74.17-.24.38-.45.62-.6.24-.16.52-.24.84-.24.36,0,.63.1.8.29.17.2.29.45.33.76.05.31.06.64.04.99-.02.3-.06.58-.1.86-.05.28-.09.52-.14.73h.05c.36-.97.72-1.71,1.07-2.24.35-.52.7-.89,1.04-1.09.34-.2.69-.3,1.03-.3.42,0,.76.1,1.02.29.25.19.44.44.55.76.11.31.17.66.17,1.03,0,.58-.04,1.18-.12,1.79-.08.61-.16,1.17-.24,1.69-.08.51-.12.93-.12,1.23,0,.19.02.36.07.51s.17.22.36.22c.18,0,.38-.11.6-.34.22-.23.41-.63.56-1.2l.45.11c-.03.18-.1.4-.2.65-.1.25-.24.5-.41.74-.17.24-.38.44-.62.6s-.52.24-.84.24Z"/>
        <path class="cls-1" d="M27.35,31.11c-.01-.07-.02-.14-.02-.2v-.21c0-.18,0-.4.02-.64.01-.25.03-.58.07-.99s.09-.95.17-1.62c.07-.69.13-1.21.18-1.56.04-.35.07-.61.1-.77.02-.16.03-.3.03-.41.01-.21,0-.42-.04-.62-.04-.2-.17-.3-.39-.3-.17,0-.37.12-.59.35s-.41.63-.57,1.19l-.45-.1c.03-.19.1-.41.2-.66.1-.25.24-.5.41-.74.17-.24.38-.45.62-.6.24-.16.52-.24.84-.24.48,0,.8.16.95.49.16.33.23.77.21,1.32-.01.23-.04.49-.09.77-.05.28-.1.58-.15.88h.05c.31-.92.63-1.63.96-2.13.33-.5.67-.85,1.02-1.04.34-.2.69-.29,1.03-.29.32,0,.58.08.8.25.21.16.32.39.32.68,0,.19-.07.37-.2.52s-.31.24-.53.24c-.19,0-.36-.06-.49-.17s-.22-.28-.24-.49c-.3-.06-.59.03-.87.29-.28.25-.55.62-.8,1.09-.25.47-.47,1-.65,1.58s-.33,1.18-.44,1.78c-.11.6-.16,1.17-.16,1.69,0,.16,0,.28,0,.36,0,.08.01.19.02.33h-1.32Z"/>
        <path class="cls-1" d="M35.1,22.98c.45,0,.78.15,1,.45.22.3.33.7.33,1.2,0,.32-.03.68-.09,1.09-.06.41-.13.85-.21,1.31-.08.47-.16.94-.21,1.41-.06.47-.09.93-.09,1.38,0,.21.04.38.12.49s.2.17.37.17c.18,0,.38-.12.6-.35.22-.23.41-.63.56-1.19l.45.1c-.04.22-.11.46-.21.72-.1.26-.23.5-.39.73-.16.23-.35.42-.58.56-.23.15-.49.22-.79.22-.49,0-.85-.13-1.08-.38-.23-.25-.35-.63-.35-1.11s.03-.92.1-1.36c.06-.44.14-.88.21-1.31s.15-.86.21-1.3c.06-.43.1-.88.1-1.34,0-.14-.03-.29-.09-.46-.06-.17-.18-.25-.36-.25-.17,0-.37.12-.59.35s-.41.63-.57,1.19l-.45-.1c.03-.19.1-.41.19-.66.1-.25.23-.5.39-.74.16-.24.36-.45.6-.6.23-.16.51-.24.83-.24ZM36.01,19.54c.24,0,.45.08.6.25.16.16.24.38.24.66s-.08.48-.25.64c-.17.16-.37.25-.6.25s-.43-.08-.6-.25-.25-.38-.25-.64.08-.5.25-.66c.17-.16.37-.25.6-.25Z"/>
        <path class="cls-1" d="M41.17,31.28c-.42,0-.83-.07-1.23-.2-.39-.13-.71-.33-.96-.58-.24-.25-.37-.56-.37-.92,0-.23.07-.42.2-.56.13-.14.29-.21.49-.21.21,0,.37.07.49.21.11.14.17.29.17.46,0,.07-.01.15-.03.24-.02.08-.06.17-.11.25.08.23.25.41.51.54.25.13.52.19.81.19.57,0,1-.13,1.29-.4.29-.27.43-.64.43-1.11,0-.29-.1-.54-.3-.76-.2-.22-.46-.43-.76-.63s-.63-.39-.95-.58c-.31-.19-.6-.39-.88-.59-.28-.2-.51-.42-.68-.67-.18-.24-.26-.52-.26-.83,0-.39.12-.75.35-1.07.23-.32.56-.58.97-.78.41-.2.89-.29,1.43-.29.4,0,.78.06,1.14.19.36.13.65.31.88.54.23.23.34.51.34.83,0,.22-.06.4-.19.53-.13.13-.29.2-.48.2s-.34-.06-.46-.19c-.12-.13-.17-.28-.17-.45,0-.08.01-.17.03-.25.02-.08.06-.16.11-.25-.05-.18-.18-.33-.39-.45-.21-.12-.49-.18-.85-.18-.23,0-.46.05-.68.16s-.41.25-.56.44c-.15.19-.22.41-.22.66,0,.2.06.39.18.56.12.17.28.33.49.48.2.15.42.3.65.45.38.22.77.46,1.18.71.4.25.74.53,1.01.85.27.32.41.71.41,1.16s-.12.84-.37,1.19c-.25.35-.6.63-1.05.83-.45.2-.97.3-1.57.3Z"/>
        <path class="cls-1" d="M49.44,22.98c.38,0,.74.06,1.08.17.34.12.62.31.83.57.21.27.32.63.32,1.08s-.15.81-.45,1.13-.68.58-1.16.79c-.48.21-.99.37-1.53.5s-1.06.22-1.56.27c0,.66.07,1.21.2,1.65.13.45.33.78.6,1,.27.22.6.33,1.02.33.31,0,.62-.07.93-.21.31-.14.61-.35.9-.63.29-.28.55-.64.78-1.09l.52.3c-.3.55-.62,1.01-.95,1.37-.34.36-.71.63-1.11.8-.4.17-.85.25-1.34.25-1.01,0-1.75-.32-2.23-.95-.48-.63-.72-1.46-.72-2.49,0-.62.08-1.21.24-1.8.16-.58.4-1.11.72-1.57.32-.46.72-.83,1.21-1.1s1.06-.41,1.7-.41ZM49.22,23.52c-.49,0-.89.16-1.2.49-.31.33-.55.75-.72,1.27-.16.52-.27,1.07-.31,1.64.56-.07,1.1-.21,1.61-.4s.93-.44,1.26-.74c.33-.3.49-.66.49-1.06,0-.34-.09-.63-.28-.86-.19-.23-.47-.35-.85-.35Z"/>
    </g>
    <g>
        <path class="cls-1" d="M58.92,21.48v1.02c1.57.44,2.72,1.86,2.72,3.57s-1.16,3.13-2.72,3.57v1.02c2.11-.46,3.7-2.34,3.7-4.59s-1.59-4.13-3.7-4.59Z"/>
        <g>
            <circle class="cls-1" cx="58.75" cy="19.01" r=".83"/>
            <circle class="cls-1" cx="63.45" cy="21.36" r=".83"/>
            <circle class="cls-1" cx="65.35" cy="26.06" r=".83"/>
            <circle class="cls-1" cx="58.75" cy="33.12" r=".83"/>
            <circle class="cls-1" cx="63.25" cy="31.18" r=".83"/>
        </g>
    </g>
</svg>